<?xml version="1.0" encoding="utf-8"?>
<!-- Generator: Adobe Illustrator 25.0.1, SVG Export Plug-In . SVG Version: 6.00 Build 0)  -->
<svg version="1.1" id="Layer_1" xmlns="http://www.w3.org/2000/svg" xmlns:xlink="http://www.w3.org/1999/xlink" x="0px" y="0px"
	 viewBox="0 0 400 400" style="enable-background:new 0 0 400 400;" xml:space="preserve">
<style type="text/css">
	.st0{fill:#7EC5AD;}
	.st1{fill:#F4ABBC;}
	.st2{fill:#4A494A;}
</style>
<g>
	<path class="st1" d="M199.8,358.4c-5.1,0-9.9-1.8-13.8-5.2c-14.4-12.6-28.2-24.4-40.4-34.8l-0.1-0.1
		c-35.8-30.5-66.8-56.9-88.3-82.9C33.2,206.5,22,179,22,148.9c0-29.2,10-56.2,28.2-75.9c18.4-20,43.7-31,71.1-31
		c20.5,0,39.3,6.5,55.9,19.3c8.4,6.5,15.9,14.4,22.6,23.6c6.7-9.2,14.2-17.1,22.6-23.6C238.9,48.5,257.7,42,278.3,42
		c27.5,0,52.7,11,71.1,31c18.2,19.7,28.2,46.7,28.2,75.9c0,30.1-11.2,57.6-35.3,86.7c-21.5,26-52.5,52.3-88.3,82.9
		c-12.2,10.4-26.1,22.3-40.5,34.8C209.7,356.6,204.9,358.4,199.8,358.4L199.8,358.4z M121.3,62.8c-21.6,0-41.4,8.6-55.8,24.3
		c-14.6,15.9-22.7,37.8-22.7,61.8c0,25.3,9.4,47.9,30.5,73.4c20.4,24.6,50.7,50.4,85.8,80.3l0.1,0.1c12.3,10.5,26.2,22.3,40.6,35
		c14.6-12.7,28.5-24.6,40.8-35c35.1-29.9,65.4-55.7,85.8-80.3c21.1-25.4,30.5-48.1,30.5-73.4c0-24-8.1-45.9-22.7-61.8
		c-14.4-15.6-34.2-24.3-55.8-24.3c-15.8,0-30.3,5-43.1,14.9c-11.4,8.8-19.4,20-24,27.8c-2.4,4-6.6,6.4-11.3,6.4
		c-4.7,0-8.9-2.4-11.3-6.4c-4.7-7.8-12.6-19-24-27.8C151.6,67.9,137.1,62.8,121.3,62.8L121.3,62.8z M121.3,62.8"/>
</g>
</svg>
