<?xml version="1.0" encoding="utf-8"?>
<!-- Generator: Adobe Illustrator 25.0.1, SVG Export Plug-In . SVG Version: 6.00 Build 0)  -->
<svg version="1.1" id="Layer_1" xmlns="http://www.w3.org/2000/svg" xmlns:xlink="http://www.w3.org/1999/xlink" x="0px" y="0px"
	 viewBox="0 0 400 400" style="enable-background:new 0 0 400 400;" xml:space="preserve">
<style type="text/css">
	.st0{fill:#7EC5AD;}
	.st1{fill:#F4ABBC;}
	.st2{fill:#4A494A;}
</style>
<path class="st1" d="M349.4,73c-18.4-20-43.7-31-71.1-31c-20.5,0-39.3,6.5-55.9,19.3c-8.4,6.5-15.9,14.4-22.6,23.6
	c-6.7-9.2-14.2-17.1-22.6-23.6C160.7,48.5,141.9,42,121.3,42c-27.5,0-52.7,11-71.1,31C32,92.7,22,119.7,22,148.9
	c0,30.1,11.2,57.6,35.3,86.7c21.5,26,52.5,52.3,88.3,82.9l0.1,0.1c12.2,10.4,26.1,22.2,40.4,34.8c3.8,3.3,8.7,5.2,13.8,5.2
	c5.1,0,9.9-1.8,13.7-5.2c14.4-12.6,28.3-24.4,40.5-34.8c35.8-30.5,66.8-56.9,88.3-82.9c24.1-29,35.3-56.6,35.3-86.7
	C377.6,119.7,367.6,92.7,349.4,73z"/>
</svg>
