<svg id="ewrctcqsy61" xmlns="http://www.w3.org/2000/svg" xmlns:xlink="http://www.w3.org/1999/xlink" viewBox="0 0 400 400" shape-rendering="geometricPrecision" text-rendering="geometricPrecision"><style><![CDATA[#ewrctcqsy62_ts {animation: ewrctcqsy62_ts__ts 3000ms linear 1 normal forwards}@keyframes ewrctcqsy62_ts__ts { 0% {transform: translate(188.849998px,133.150002px) scale(0.578839,0.578839)} 50% {transform: translate(188.849998px,133.150002px) scale(1,1)} 100% {transform: translate(188.849998px,133.150002px) scale(0.578839,0.578839)} }#ewrctcqsy63_ts {animation: ewrctcqsy63_ts__ts 3000ms linear 1 normal forwards}@keyframes ewrctcqsy63_ts__ts { 0% {transform: translate(117.699993px,293.599983px) scale(1,1)} 50% {transform: translate(117.699993px,293.599983px) scale(0.709364,0.709364)} 100% {transform: translate(117.699993px,293.599983px) scale(1,1)} }#ewrctcqsy64_ts {animation: ewrctcqsy64_ts__ts 3000ms linear 1 normal forwards}@keyframes ewrctcqsy64_ts__ts { 0% {transform: translate(291.301537px,247.950005px) scale(1,1)} 50% {transform: translate(291.301537px,247.950005px) scale(0.693764,0.693764)} 100% {transform: translate(291.301537px,247.950005px) scale(1,1)} }#ewrctcqsy65_ts {animation: ewrctcqsy65_ts__ts 3000ms linear 1 normal forwards}@keyframes ewrctcqsy65_ts__ts { 0% {transform: translate(224.002899px,339.099991px) scale(1,1)} 50% {transform: translate(224.002899px,339.099991px) scale(1.611106,1.611106)} 100% {transform: translate(224.002899px,339.099991px) scale(1,1)} }]]></style><g id="ewrctcqsy62_ts" transform="translate(188.849998,133.150002) scale(0.578839,0.578839)"><path id="ewrctcqsy62" d="M275.100000,59.800000C264.500000,48.300000,249.900000,42,234.100000,42C222.300000,42,211.400000,45.700000,201.900000,53.100000C197.100000,56.800000,192.700000,61.400000,188.900000,66.700000C185.100000,61.400000,180.700000,56.800000,175.900000,53.100000C166.400000,45.700000,155.500000,42,143.700000,42C127.900000,42,113.300000,48.300000,102.700000,59.800000C92.200000,71.200000,86.400000,86.700000,86.400000,103.600000C86.400000,120.900000,92.900000,136.800000,106.700000,153.500000C119.100000,168.500000,136.900000,183.700000,157.600000,201.300000L157.600000,201.300000C164.600000,207.300000,172.600000,214.100000,180.900000,221.300000C183.100000,223.200000,185.900000,224.300000,188.800000,224.300000C191.700000,224.300000,194.500000,223.200000,196.700000,221.300000C205,214,213,207.200000,220.100000,201.200000C240.700000,183.600000,258.600000,168.400000,271,153.400000C284.900000,136.700000,291.300000,120.800000,291.300000,103.500000C291.300000,86.800000,285.600000,71.200000,275.100000,59.800000Z" transform="translate(-188.849998,-133.150002)" fill="rgb(244,171,188)" stroke="none" stroke-width="1"/></g><g id="ewrctcqsy63_ts" transform="translate(117.699993,293.599983) scale(1,1)"><path id="ewrctcqsy63" d="M160.700000,256.900000C155.400000,251.100000,148.100000,248,140.200000,248C134.300000,248,128.900000,249.900000,124.100000,253.600000C121.700000,255.500000,119.500000,257.700000,117.600000,260.400000C115.700000,257.700000,113.500000,255.500000,111.100000,253.600000C106.300000,249.900000,100.900000,248,95,248C87.100000,248,79.800000,251.200000,74.500000,256.900000C69.300000,262.600000,66.400000,270.400000,66.400000,278.800000C66.400000,287.500000,69.600000,295.400000,76.600000,303.800000C82.800000,311.300000,91.700000,318.900000,102,327.700000L102,327.700000C105.500000,330.700000,109.500000,334.100000,113.700000,337.700000C114.800000,338.700000,116.200000,339.200000,117.700000,339.200000C119.200000,339.200000,120.600000,338.700000,121.700000,337.700000C125.800000,334.100000,129.800000,330.700000,133.400000,327.700000C143.700000,318.900000,152.600000,311.300000,158.800000,303.800000C165.700000,295.400000,169,287.500000,169,278.800000C168.800000,270.400000,165.900000,262.600000,160.700000,256.900000Z" transform="translate(-117.699993,-293.599983)" fill="rgb(244,171,188)" stroke="none" stroke-width="1"/></g><g id="ewrctcqsy64_ts" transform="translate(291.301537,247.950005) scale(1,1)"><path id="ewrctcqsy64" d="M326.900000,217.700000C322.500000,212.900000,316.500000,210.300000,310,210.300000C305.100000,210.300000,300.600000,211.800000,296.700000,214.900000C294.700000,216.400000,292.900000,218.300000,291.300000,220.500000C289.700000,218.300000,287.900000,216.400000,285.900000,214.900000C282,211.900000,277.500000,210.300000,272.600000,210.300000C266.100000,210.300000,260.100000,212.900000,255.700000,217.700000C251.400000,222.400000,249,228.800000,249,235.800000C249,243,251.700000,249.500000,257.400000,256.400000C262.500000,262.600000,269.900000,268.900000,278.400000,276.100000L278.400000,276.100000C281.300000,278.600000,284.600000,281.400000,288,284.400000C288.900000,285.200000,290.100000,285.600000,291.300000,285.600000C292.500000,285.600000,293.700000,285.200000,294.600000,284.400000C298,281.400000,301.300000,278.600000,304.200000,276.100000C312.700000,268.800000,320.100000,262.600000,325.200000,256.400000C330.900000,249.500000,333.600000,242.900000,333.600000,235.800000C333.700000,228.800000,331.300000,222.400000,326.900000,217.700000Z" transform="translate(-291.301537,-247.950005)" fill="rgb(244,171,188)" stroke="none" stroke-width="1"/></g><g id="ewrctcqsy65_ts" transform="translate(224.002899,339.099991) scale(1,1)"><path id="ewrctcqsy65" d="M241.900000,324C239.700000,321.600000,236.700000,320.300000,233.400000,320.300000C231,320.300000,228.700000,321.100000,226.800000,322.600000C225.800000,323.400000,224.900000,324.300000,224.100000,325.400000C223.300000,324.300000,222.400000,323.400000,221.400000,322.600000C219.400000,321.100000,217.200000,320.300000,214.800000,320.300000C211.500000,320.300000,208.500000,321.600000,206.300000,324C204.100000,326.300000,202.900000,329.600000,202.900000,333C202.900000,336.600000,204.200000,339.900000,207.100000,343.300000C209.700000,346.400000,213.300000,349.500000,217.600000,353.200000L217.600000,353.200000C219.100000,354.400000,220.700000,355.800000,222.400000,357.300000C222.900000,357.700000,223.400000,357.900000,224,357.900000C224.600000,357.900000,225.200000,357.700000,225.600000,357.300000C227.300000,355.800000,229,354.400000,230.400000,353.200000C234.700000,349.600000,238.300000,346.400000,240.900000,343.300000C243.800000,339.800000,245.100000,336.600000,245.100000,333C245.200000,329.600000,244,326.400000,241.900000,324Z" transform="translate(-224.002899,-339.099991)" fill="rgb(244,171,188)" stroke="none" stroke-width="1"/></g></svg>