<?xml version="1.0" encoding="utf-8"?>
<!-- Generator: Adobe Illustrator 25.0.1, SVG Export Plug-In . SVG Version: 6.00 Build 0)  -->
<svg version="1.1" id="Layer_1" xmlns="http://www.w3.org/2000/svg" xmlns:xlink="http://www.w3.org/1999/xlink" x="0px" y="0px"
	 viewBox="0 0 400 400" style="enable-background:new 0 0 400 400;" xml:space="preserve">
<style type="text/css">
	.st0{fill:#7EC5AD;}
	.st1{fill:#F4ABBC;}
	.st2{fill:#4A494A;}
</style>
<path class="st1" d="M275.1,59.8c-10.6-11.5-25.2-17.8-41-17.8c-11.8,0-22.7,3.7-32.2,11.1c-4.8,3.7-9.2,8.3-13,13.6
	c-3.8-5.3-8.2-9.9-13-13.6c-9.5-7.4-20.4-11.1-32.2-11.1c-15.8,0-30.4,6.3-41,17.8c-10.5,11.4-16.3,26.9-16.3,43.8
	c0,17.3,6.5,33.2,20.3,49.9c12.4,15,30.2,30.2,50.9,47.8l0,0c7,6,15,12.8,23.3,20c2.2,1.9,5,3,7.9,3c2.9,0,5.7-1.1,7.9-3
	c8.3-7.3,16.3-14.1,23.4-20.1c20.6-17.6,38.5-32.8,50.9-47.8c13.9-16.7,20.3-32.6,20.3-49.9C291.3,86.8,285.6,71.2,275.1,59.8z"/>
<path class="st1" d="M160.7,256.9c-5.3-5.8-12.6-8.9-20.5-8.9c-5.9,0-11.3,1.9-16.1,5.6c-2.4,1.9-4.6,4.1-6.5,6.8
	c-1.9-2.7-4.1-4.9-6.5-6.8c-4.8-3.7-10.2-5.6-16.1-5.6c-7.9,0-15.2,3.2-20.5,8.9c-5.2,5.7-8.1,13.5-8.1,21.9c0,8.7,3.2,16.6,10.2,25
	c6.2,7.5,15.1,15.1,25.4,23.9l0,0c3.5,3,7.5,6.4,11.7,10c1.1,1,2.5,1.5,4,1.5c1.5,0,2.9-0.5,4-1.5c4.1-3.6,8.1-7,11.7-10
	c10.3-8.8,19.2-16.4,25.4-23.9c6.9-8.4,10.2-16.3,10.2-25C168.8,270.4,165.9,262.6,160.7,256.9z"/>
<path class="st1" d="M326.9,217.7c-4.4-4.8-10.4-7.4-16.9-7.4c-4.9,0-9.4,1.5-13.3,4.6c-2,1.5-3.8,3.4-5.4,5.6
	c-1.6-2.2-3.4-4.1-5.4-5.6c-3.9-3-8.4-4.6-13.3-4.6c-6.5,0-12.5,2.6-16.9,7.4c-4.3,4.7-6.7,11.1-6.7,18.1c0,7.2,2.7,13.7,8.4,20.6
	c5.1,6.2,12.5,12.5,21,19.7l0,0c2.9,2.5,6.2,5.3,9.6,8.3c0.9,0.8,2.1,1.2,3.3,1.2c1.2,0,2.4-0.4,3.3-1.2c3.4-3,6.7-5.8,9.6-8.3
	c8.5-7.3,15.9-13.5,21-19.7c5.7-6.9,8.4-13.5,8.4-20.6C333.7,228.8,331.3,222.4,326.9,217.7z"/>
<path class="st1" d="M241.9,324c-2.2-2.4-5.2-3.7-8.5-3.7c-2.4,0-4.7,0.8-6.6,2.3c-1,0.8-1.9,1.7-2.7,2.8c-0.8-1.1-1.7-2-2.7-2.8
	c-2-1.5-4.2-2.3-6.6-2.3c-3.3,0-6.3,1.3-8.5,3.7c-2.2,2.3-3.4,5.6-3.4,9c0,3.6,1.3,6.9,4.2,10.3c2.6,3.1,6.2,6.2,10.5,9.9l0,0
	c1.5,1.2,3.1,2.6,4.8,4.1c0.5,0.4,1,0.6,1.6,0.6c0.6,0,1.2-0.2,1.6-0.6c1.7-1.5,3.4-2.9,4.8-4.1c4.3-3.6,7.9-6.8,10.5-9.9
	c2.9-3.5,4.2-6.7,4.2-10.3C245.2,329.6,244,326.4,241.9,324z"/>
</svg>
